#!OML:ASF X:\für Bonn\!DataBase\2005_08_12_Daniel\c3d\Daniel.ASF
:FULLY-SPECIFIED
:DEGREES
65
root 2.83494 17.597 17.2446 -5.90506 13.1607 -1.27135
lowerback 6.24122 0.697082 2.33989
upperback -0.296833 0.958151 -4.03279
thorax -3.70607 0.396015 -5.61266
lowerneck 3.50292 -3.82447 -2.73646
upperneck 13.0971 -5.34396 2.27829
head 3.80463 -2.68049 1.10502
rclavicle 2.0773e-014 -2.22639e-014
rhumerus 39.1898 1.77458 -63.597
rradius 47.1651
rwrist 2.86321
rhand -22.3699 15.3973
rfingers 7.12502
rthumb 4.05153 -14.5439
lclavicle 2.0773e-014 -2.22639e-014
lhumerus -40.6283 45.3951 54.324
lradius 15.6479
lwrist -48.2342
lhand -11.4392 -6.45807
lfingers 7.12502
lthumb 14.5974 23.0082
rfemur 11.7448 17.0514 22.799
rtibia 11.8559
rfoot -23.8172 -25.7353
rtoes -13.4669
lfemur -0.4142 -18.3453 -18.3142
ltibia 29.4068
lfoot -22.9749 4.68682
ltoes -14.6142
66
root 2.832 17.597 17.2469 -5.90719 13.2361 -1.27159
lowerback 6.22277 0.783328 2.41226
upperback -0.294715 1.07687 -4.09451
thorax -3.67763 0.45414 -5.72969
lowerneck 3.54087 -3.92805 -2.66972
upperneck 13.1237 -5.49081 2.34541
head 3.81194 -2.74757 1.11251
rclavicle 2.37548e-014 -1.74931e-014
rhumerus 40.6658 1.47363 -63.2008
rradius 44.7437
rwrist 3.49492
rhand -21.7218 15.2661
rfingers 7.12502
rthumb 4.67742 -14.6623
lclavicle 2.37548e-014 -1.74931e-014
lhumerus -40.7556 45.6475 53.9457
lradius 15.549
lwrist -48.6423
lhand -11.5582 -6.4541
lfingers 7.12502
lthumb 14.4827 23.0205
rfemur 11.7716 17.0092 22.8118
rtibia 11.8453
rfoot -23.861 -25.7512
rtoes -13.4256
lfemur -0.437285 -18.3548 -18.297
ltibia 29.4199
lfoot -22.9666 4.63393
ltoes -14.6651
67
root 2.82908 17.5972 17.2496 -5.89642 13.3121 -1.25899
lowerback 6.20279 0.871045 2.46572
upperback -0.30039 1.19617 -4.15093
thorax -3.65625 0.5127 -5.83035
lowerneck 3.56286 -4.03171 -2.63294
upperneck 13.1758 -5.63841 2.4168
head 3.83277 -2.81605 1.12616
rclavicle -1.19271e-015 0
rhumerus 42.0618 1.20266 -62.7733
rradius 42.4104
rwrist 4.05132
rhand -21.0403 15.1659
rfingers 7.12502
rthumb 5.33548 -14.7469
lclavicle -1.19271e-015 0
lhumerus -40.8971 45.8999 53.5758
lradius 15.4502
lwrist -49.024
lhand -11.6442 -6.48151
lfingers 7.12502
lthumb 14.3999 22.999
rfemur 11.7799 16.9353 22.8006
rtibia 11.8399
rfoot -23.8751 -25.7515
rtoes -13.4243
lfemur -0.466286 -18.3641 -18.2909
ltibia 29.4332
lfoot -22.9625 4.58199
ltoes -14.7137
68
root 2.82608 17.5966 17.2528 -5.89949 13.3903 -1.2586
lowerback 6.17902 0.958347 2.53552
upperback -0.296182 1.31618 -4.21276
thorax -3.62143 0.571842 -5.94576
lowerneck 3.58331 -4.14035 -2.5497
upperneck 13.2139 -5.78928 2.45838
head 3.84602 -2.885 1.12177
rclavicle 1.5704e-014 -4.77083e-015
rhumerus 43.373 0.94227 -62.376
rradius 40.1624
rwrist 4.63608
rhand -20.4347 15.0407
rfingers 7.12502
rthumb 5.92015 -14.8565
lclavicle 1.5704e-014 -4.77083e-015
lhumerus -40.9758 46.0606 53.2821
lradius 15.3642
lwrist -49.3569
lhand -11.7545 -6.46242
lfingers 7.12502
lthumb 14.2936 23.0256
rfemur 11.811 16.9225 22.8247
rtibia 11.8342
rfoot -23.9422 -25.7926
rtoes -13.3675
lfemur -0.477734 -18.388 -18.2747
ltibia 29.4437
lfoot -22.9654 4.53662
ltoes -14.7229
69
root 2.82284 17.5966 17.2563 -5.89762 13.4662 -1.24766
lowerback 6.14974 1.04535 2.60004
upperback -0.286918 1.43546 -4.27545
thorax -3.57786 0.63113 -6.05856
lowerneck 3.58512 -4.24291 -2.50797
upperneck 13.261 -5.93543 2.53245
head 3.86885 -2.95222 1.13506
rclavicle 7.2457e-014 4.77083e-015
rhumerus 44.6074 0.696096 -61.9596
rradius 38.0227
rwrist 5.17707
rhand -19.8185 14.9372
rfingers 7.12502
rthumb 6.51503 -14.9426
lclavicle 7.2457e-014 4.77083e-015
lhumerus -41.1048 46.342 52.8858
lradius 15.2499
lwrist -49.7875
lhand -11.8146 -6.5089
lfingers 7.12502
lthumb 14.2357 22.9832
rfemur 11.838 16.8846 22.8349
rtibia 11.8287
rfoot -23.979 -25.8262
rtoes -13.3653
lfemur -0.496178 -18.3935 -18.2664
ltibia 29.4531
lfoot -22.9623 4.47768
ltoes -14.7854
70
root 2.82033 17.596 17.2599 -5.89522 13.5487 -1.26016
lowerback 6.11571 1.12134 2.70685
upperback -0.285352 1.54302 -4.33495
thorax -3.53959 0.683579 -6.19121
lowerneck 3.6239 -4.33763 -2.51781
upperneck 13.2803 -6.07425 2.63541
head 3.87807 -3.01767 1.16806
rclavicle -4.30369e-014 4.77083e-015
rhumerus 45.7762 0.469197 -61.6234
rradius 35.9529
rwrist 5.82051
rhand -19.2326 14.7661
rfingers 7.12502
rthumb 7.08063 -15.0955
lclavicle -4.30369e-014 4.77083e-015
lhumerus -41.2177 46.5226 52.5739
lradius 15.1802
lwrist -50.1211
lhand -11.9016 -6.47699
lfingers 7.12502
lthumb 14.1518 23.021
rfemur 11.8603 16.8258 22.8562
rtibia 11.8195
rfoot -24.0267 -25.818
rtoes -13.3021
lfemur -0.512637 -18.4395 -18.2447
ltibia 29.4612
lfoot -22.9625 4.45312
ltoes -14.8342
71
root 2.81682 17.5968 17.2638 -5.88487 13.6173 -1.24768
lowerback 6.08403 1.21515 2.79193
upperback -0.28434 1.67261 -4.40202
thorax -3.50011 0.747506 -6.32127
lowerneck 3.6289 -4.43998 -2.52796
upperneck 13.3328 -6.22298 2.73303
head 3.90587 -3.08771 1.19811
rclavicle -1.59028e-015 -1.11319e-014
rhumerus 46.8413 0.198576 -61.3262
rradius 33.9957
rwrist 6.46811
rhand -18.5996 14.5522
rfingers 7.12502
rthumb 7.69159 -15.2879
lclavicle -1.59028e-015 -1.11319e-014
lhumerus -41.328 46.7267 52.2503
lradius 15.1069
lwrist -50.5006
lhand -11.9694 -6.44974
lfingers 7.12502
lthumb 14.0865 23.0528
rfemur 11.8839 16.8056 22.8659
rtibia 11.8006
rfoot -24.0556 -25.8658
rtoes -13.2969
lfemur -0.536339 -18.4571 -18.2354
ltibia 29.4722
lfoot -22.9653 4.3984
ltoes -14.8354
72
root 2.81353 17.5965 17.2677 -5.8708 13.6945 -1.24566
lowerback 6.03501 1.29486 2.88851
upperback -0.27705 1.78421 -4.46714
thorax -3.44572 0.802904 -6.45338
lowerneck 3.65512 -4.53175 -2.5452
upperneck 13.3478 -6.35825 2.8411
head 3.91677 -3.15147 1.23397
rclavicle -5.79457e-014 1.59028e-014
rhumerus 47.8886 -0.130095 -61.2285
rradius 32.0817
rwrist 7.27271
rhand -17.9478 14.376
rfingers 7.12502
rthumb 8.32071 -15.4401
lclavicle -5.79457e-014 1.59028e-014
lhumerus -41.4623 46.9607 51.9034
lradius 15.0448
lwrist -50.9146
lhand -12.0219 -6.45529
lfingers 7.12502
lthumb 14.0359 23.0508
rfemur 11.8789 16.7934 22.8864
rtibia 11.8364
rfoot -24.1347 -25.9014
rtoes -13.1868
lfemur -0.574329 -18.4953 -18.2224
ltibia 29.4985
lfoot -22.9714 4.37218
ltoes -14.8861
73
root 2.81044 17.5964 17.2706 -5.87734 13.769 -1.25876
lowerback 6.02714 1.37529 3.0136
upperback -0.276455 1.89901 -4.53265
thorax -3.41949 0.858524 -6.60437
lowerneck 3.68471 -4.62742 -2.57436
upperneck 13.3663 -6.49956 2.95479
head 3.92958 -3.21862 1.27367
rclavicle 2.50469e-014 -1.27222e-014
rhumerus 48.8958 -0.541321 -61.3372
rradius 30.1791
rwrist 8.31796
rhand -17.3252 14.2175
rfingers 7.12502
rthumb 8.92155 -15.5739
lclavicle 2.50469e-014 -1.27222e-014
lhumerus -41.6339 47.2189 51.5034
lradius 14.9772
lwrist -51.3508
lhand -12.0656 -6.45136
lfingers 7.12502
lthumb 13.9938 23.0576
rfemur 11.8786 16.7435 22.9178
rtibia 11.8793
rfoot -24.1867 -25.919
rtoes -13.2361
lfemur -0.595842 -18.5013 -18.1897
ltibia 29.5238
lfoot -22.977 4.31301
ltoes -14.9349
74
root 2.80688 17.593 17.2736 -5.86731 13.8546 -1.24627
lowerback 5.99548 1.45081 3.09411
upperback -0.26635 2.00437 -4.58701
thorax -3.37233 0.911216 -6.71564
lowerneck 3.67329 -4.7109 -2.65615
upperneck 13.4097 -6.62693 3.08885
head 3.96218 -3.2801 1.32862
rclavicle -2.38542e-015 4.92986e-014
rhumerus 49.875 -1.01922 -61.6166
rradius 28.3479
rwrist 9.57129
rhand -16.6975 14.0494
rfingers 7.12502
rthumb 9.52722 -15.7152
lclavicle -2.38542e-015 4.92986e-014
lhumerus -41.7906 47.4838 51.1545
lradius 14.9205
lwrist -51.7524
lhand -12.0832 -6.46535
lfingers 7.12502
lthumb 13.9769 23.0448
rfemur 11.8751 16.71 22.9207
rtibia 11.9112
rfoot -24.2634 -25.941
rtoes -13.1838
lfemur -0.637668 -18.5547 -18.1869
ltibia 29.5593
lfoot -22.9854 4.29006
ltoes -14.9437
75
root 2.80322 17.593 17.2762 -5.85335 13.9347 -1.24638
lowerback 5.97631 1.53237 3.19701
upperback -0.263454 2.11895 -4.65664
thorax -3.33659 0.967629 -6.85756
lowerneck 3.69185 -4.80648 -2.65794
upperneck 13.4144 -6.76732 3.19842
head 3.97119 -3.3456 1.36207
rclavicle -5.94366e-014 7.95139e-015
rhumerus 50.8085 -1.59318 -62.0867
rradius 26.5818
rwrist 10.9122
rhand -16.0099 13.9299
rfingers 7.12502
rthumb 10.1906 -15.8033
lclavicle -5.94366e-014 7.95139e-015
lhumerus -41.8242 47.6299 50.908
lradius 14.8516
lwrist -52.0139
lhand -12.0891 -6.43808
lfingers 7.12502
lthumb 13.9712 23.0725
rfemur 11.8505 16.6502 22.9301
rtibia 11.9565
rfoot -24.3014 -25.9524
rtoes -13.1733
lfemur -0.683575 -18.561 -18.1589
ltibia 29.5842
lfoot -22.9853 4.22753
ltoes -14.9932
76
root 2.7999 17.5935 17.2788 -5.84034 14.007 -1.24522
lowerback 5.97515 1.61209 3.2842
upperback -0.27431 2.23041 -4.70696
thorax -3.32636 1.02179 -6.97076
lowerneck 3.6843 -4.8957 -2.72261
upperneck 13.4628 -6.90058 3.31198
head 4.00402 -3.40987 1.40709
rclavicle -1.06549e-013 2.38542e-014
rhumerus 51.7222 -2.23488 -62.748
rradius 24.8478
rwrist 12.4526
rhand -15.2896 13.8719
rfingers 7.12502
rthumb 10.8854 -15.826
lclavicle -1.06549e-013 2.38542e-014
lhumerus -41.9687 47.8262 50.5986
lradius 14.8081
lwrist -52.3522
lhand -12.0804 -6.41469
lfingers 7.12502
lthumb 13.9796 23.0953
rfemur 11.8307 16.6131 22.94
rtibia 12.0019
rfoot -24.3744 -25.9593
rtoes -13.1263
lfemur -0.724902 -18.5935 -18.1433
ltibia 29.6092
lfoot -22.9866 4.19943
ltoes -15.0414
77
root 2.7962 17.594 17.2802 -5.82987 14.0961 -1.23404
lowerback 5.98653 1.68995 3.36534
upperback -0.27565 2.33884 -4.77496
thorax -3.3127 1.07484 -7.09945
lowerneck 3.67319 -4.99748 -2.69446
upperneck 13.4907 -7.04566 3.38458
head 4.0244 -3.47705 1.42187
rclavicle 4.56211e-014 2.38542e-014
rhumerus 52.5945 -2.97136 -63.5635
rradius 23.2125
rwrist 14.1421
rhand -14.5985 13.8474
rfingers 7.12502
rthumb 11.552 -15.8142
lclavicle 4.56211e-014 2.38542e-014
lhumerus -41.9974 47.9495 50.3864
lradius 14.7591
lwrist -52.6271
lhand -12.0657 -6.38793
lfingers 7.12502
lthumb 13.9937 23.1211
rfemur 11.8347 16.5369 22.9328
rtibia 11.9976
rfoot -24.3878 -25.9726
rtoes -13.1278
lfemur -0.761921 -18.5988 -18.1277
ltibia 29.6158
lfoot -22.9711 4.12911
ltoes -15.0909
78
root 2.79253 17.5942 17.2816 -5.83624 14.1624 -1.24528
lowerback 6.01863 1.76576 3.45377
upperback -0.275746 2.44618 -4.81462
thorax -3.30988 1.12705 -7.20292
lowerneck 3.62761 -5.08519 -2.73366
upperneck 13.5494 -7.17273 3.46007
head 4.06521 -3.53784 1.44873
rclavicle -3.71727e-014 6.36111e-015
rhumerus 53.481 -3.7812 -64.6177
rradius 21.622
rwrist 16.055
rhand -13.933 13.9236
rfingers 7.12502
rthumb 12.1937 -15.701
lclavicle -3.71727e-014 6.36111e-015
lhumerus -42.0968 48.1328 50.1413
lradius 14.7149
lwrist -52.9057
lhand -12.0551 -6.34039
lfingers 7.12502
lthumb 14.0039 23.1679
rfemur 11.8526 16.5102 22.9606
rtibia 11.9917
rfoot -24.4312 -25.995
rtoes -13.0788
lfemur -0.779372 -18.6427 -18.1031
ltibia 29.6256
lfoot -22.9675 4.09901
ltoes -15.0911
79
root 2.78891 17.5945 17.2824 -5.8223 14.2479 -1.24524
lowerback 6.05035 1.83956 3.53637
upperback -0.291501 2.54969 -4.87075
thorax -3.3228 1.17646 -7.32108
lowerneck 3.60754 -5.17791 -2.74798
upperneck 13.5897 -7.30932 3.56117
head 4.09536 -3.60157 1.4803
rclavicle -2.20651e-014 1.74931e-014
rhumerus 54.2731 -4.58101 -65.6486
rradius 20.1861
rwrist 17.8964
rhand -13.2611 13.9506
rfingers 7.12502
rthumb 12.8415 -15.6344
lclavicle -2.20651e-014 1.74931e-014
lhumerus -42.1637 48.2187 49.957
lradius 14.7042
lwrist -53.128
lhand -12.044 -6.33178
lfingers 7.12502
lthumb 14.0146 23.1758
rfemur 11.8369 16.4221 22.9574
rtibia 12.0021
rfoot -24.4315 -25.9939
rtoes -13.0243
lfemur -0.823586 -18.6742 -18.0808
ltibia 29.629
lfoot -22.9473 4.05715
ltoes -15.1403
